<?xml version="1.0" encoding="UTF-8"?>
<!DOCTYPE svg PUBLIC "-//W3C//DTD SVG 1.1//EN" "http://www.w3.org/Graphics/SVG/1.1/DTD/svg11.dtd">
<svg xmlns="http://www.w3.org/2000/svg" version="1.1" width="72px" height="72px" style="shape-rendering:geometricPrecision; text-rendering:geometricPrecision; image-rendering:optimizeQuality; fill-rule:evenodd; clip-rule:evenodd" xmlns:xlink="http://www.w3.org/1999/xlink">
<g><path style="opacity:0.997" fill="#431d64" d="M 14.5,-0.5 C 28.5,-0.5 42.5,-0.5 56.5,-0.5C 63.1667,2.83333 68.1667,7.83333 71.5,14.5C 71.5,28.8333 71.5,43.1667 71.5,57.5C 68.594,63.075 64.594,67.7417 59.5,71.5C 43.5,71.5 27.5,71.5 11.5,71.5C 6.40597,67.7417 2.40597,63.075 -0.5,57.5C -0.5,43.1667 -0.5,28.8333 -0.5,14.5C 2.83333,7.83333 7.83333,2.83333 14.5,-0.5 Z"/></g>
<g><path style="opacity:1" fill="#e7e2eb" d="M 34.5,5.5 C 36.337,5.63945 36.6704,6.30612 35.5,7.5C 34.7025,7.04311 34.3691,6.37644 34.5,5.5 Z"/></g>
<g><path style="opacity:1" fill="#beb0c9" d="M 32.5,34.5 C 32.5,35.1667 32.1667,35.5 31.5,35.5C 25.3139,30.4936 20.1472,24.827 16,18.5C 22.0035,23.3372 27.5035,28.6705 32.5,34.5 Z"/></g>
<g><path style="opacity:1" fill="#d9d1df" d="M 34.5,10.5 C 35.8232,13.9377 36.4898,17.771 36.5,22C 36.1667,25.8333 35.8333,29.6667 35.5,33.5C 34.5025,25.8622 34.1692,18.1955 34.5,10.5 Z"/></g>
<g><path style="opacity:1" fill="#cfc5d7" d="M 48.5,27.5 C 45.7029,29.795 43.0362,32.295 40.5,35C 39.5632,35.6917 38.8966,35.525 38.5,34.5C 44.1047,29.3971 49.6047,24.0638 55,18.5C 55.6667,19.1667 55.6667,19.8333 55,20.5C 52.6278,22.7032 50.4611,25.0365 48.5,27.5 Z"/></g>
<g><path style="opacity:1" fill="#cec3d6" d="M 15.5,37.5 C 20.8746,37.1718 26.2079,37.5052 31.5,38.5C 24.1968,39.4973 16.8635,39.8306 9.5,39.5C 8.62356,39.6309 7.95689,39.2975 7.5,38.5C 10.0865,37.52 12.7531,37.1866 15.5,37.5 Z"/></g>
<g><path style="opacity:1" fill="#f5f3f6" d="M 40.5,37.5 C 46.5,37.5 52.5,37.5 58.5,37.5C 60.288,37.2148 61.9547,37.5481 63.5,38.5C 63.0431,39.2975 62.3764,39.6309 61.5,39.5C 54.5,38.8333 47.5,38.1667 40.5,37.5 Z"/></g>
<g><path style="opacity:1" fill="#a390b3" d="M 40.5,37.5 C 47.5,38.1667 54.5,38.8333 61.5,39.5C 54.1365,39.8306 46.8032,39.4973 39.5,38.5C 39.6236,37.8933 39.9569,37.56 40.5,37.5 Z"/></g>
<g><path style="opacity:1" fill="#330b55" d="M 48.5,27.5 C 47.1177,30.3943 45.1177,32.8943 42.5,35C 49.5,35.3333 56.5,35.6667 63.5,36C 61.6183,36.1981 59.9516,36.6981 58.5,37.5C 52.5,37.5 46.5,37.5 40.5,37.5C 39.9569,37.56 39.6236,37.8933 39.5,38.5C 46.8032,39.4973 54.1365,39.8306 61.5,39.5C 55.0126,40.3283 48.346,40.8283 41.5,41C 42.2524,41.6708 42.5858,42.5041 42.5,43.5C 41.2876,42.7701 40.2876,41.7701 39.5,40.5C 36.8753,41.8647 36.8753,43.198 39.5,44.5C 37.6921,45.9179 37.0254,47.9179 37.5,50.5C 36.6618,50.1583 36.3284,49.4916 36.5,48.5C 36.7989,46.396 36.4656,44.396 35.5,42.5C 34.52,45.0865 34.1866,47.7531 34.5,50.5C 33.6909,48.7078 33.1909,46.7078 33,44.5C 30.8943,47.1177 28.3943,49.1177 25.5,50.5C 27.9619,47.5361 30.6286,44.7028 33.5,42C 32.9747,41.3076 32.3081,40.8076 31.5,40.5C 30.7124,41.7701 29.7124,42.7701 28.5,43.5C 28.4142,42.5041 28.7476,41.6708 29.5,41C 22.654,40.8283 15.9874,40.3283 9.5,39.5C 16.8635,39.8306 24.1968,39.4973 31.5,38.5C 26.2079,37.5052 20.8746,37.1718 15.5,37.5C 20.8333,36.8333 26.1667,36.1667 31.5,35.5C 32.1667,35.5 32.5,35.1667 32.5,34.5C 34.5,34.5 36.5,34.5 38.5,34.5C 38.8966,35.525 39.5632,35.6917 40.5,35C 43.0362,32.295 45.7029,29.795 48.5,27.5 Z"/></g>
<g><path style="opacity:1" fill="#d8d0df" d="M 34.5,37.5 C 36.337,37.6395 36.6704,38.3061 35.5,39.5C 34.7025,39.0431 34.3691,38.3764 34.5,37.5 Z"/></g>
<g><path style="opacity:1" fill="#d7cfde" d="M 25.5,50.5 C 24.8333,50.5 24.5,50.8333 24.5,51.5C 23.1667,52.5 21.8333,53.5 20.5,54.5C 20.5,53.8333 20.5,53.1667 20.5,52.5C 23.8805,50.1203 26.5472,47.1203 28.5,43.5C 29.7124,42.7701 30.7124,41.7701 31.5,40.5C 32.3081,40.8076 32.9747,41.3076 33.5,42C 30.6286,44.7028 27.9619,47.5361 25.5,50.5 Z"/></g>
<g><path style="opacity:1" fill="#cdc5d8" d="M 42.5,43.5 C 44.4528,47.1203 47.1195,50.1203 50.5,52.5C 50.5,53.1667 50.5,53.8333 50.5,54.5C 49.8333,54.1667 49.1667,53.8333 48.5,53.5C 47.8333,52.1667 46.8333,51.1667 45.5,50.5C 43.8333,48.1667 41.8333,46.1667 39.5,44.5C 36.8753,43.198 36.8753,41.8647 39.5,40.5C 40.2876,41.7701 41.2876,42.7701 42.5,43.5 Z"/></g>
<g><path style="opacity:1" fill="#bcaec8" d="M 36.5,48.5 C 35.8333,49.1667 35.1667,49.8333 34.5,50.5C 34.1866,47.7531 34.52,45.0865 35.5,42.5C 36.4656,44.396 36.7989,46.396 36.5,48.5 Z"/></g>
<g><path style="opacity:1" fill="#d0112d" d="M 55.5,58.5 C 55.5,58.1667 55.5,57.8333 55.5,57.5C 55.5,55.8333 55.5,54.1667 55.5,52.5C 53.5168,52.1568 52.1834,52.8235 51.5,54.5C 51.5,55.1667 51.5,55.8333 51.5,56.5C 51.6495,57.552 51.4828,58.552 51,59.5C 50.5065,57.8659 50.3398,56.1992 50.5,54.5C 50.5,53.8333 50.5,53.1667 50.5,52.5C 51.3739,51.4749 52.5405,50.8082 54,50.5C 56.1176,51.1959 58.2842,51.3626 60.5,51C 62.6496,53.5551 62.9829,56.3884 61.5,59.5C 60.5258,57.2573 60.1924,54.924 60.5,52.5C 59.5,52.5 58.5,52.5 57.5,52.5C 57.8076,54.924 57.4742,57.2573 56.5,59.5C 55.8933,59.3764 55.56,59.0431 55.5,58.5 Z"/></g>
<g><path style="opacity:1" fill="#cf132f" d="M 29.5,50.5 C 33.4557,51.0527 33.4557,51.8861 29.5,53C 34.7819,55.3499 34.7819,57.5165 29.5,59.5C 28.8333,59.1667 28.1667,58.8333 27.5,58.5C 28.8333,57.8333 30.1667,57.1667 31.5,56.5C 30.0186,55.5197 28.6853,54.353 27.5,53C 28.3805,52.2917 29.0472,51.4584 29.5,50.5 Z"/></g>
<g><path style="opacity:1" fill="#e62831" d="M 36.5,48.5 C 36.3284,49.4916 36.6618,50.1583 37.5,50.5C 37.3099,53.1287 37.6432,55.9621 38.5,59C 37.9056,59.4643 37.2389,59.631 36.5,59.5C 35.9346,57.0479 35.2679,54.7146 34.5,52.5C 34.5,51.8333 34.5,51.1667 34.5,50.5C 35.1667,49.8333 35.8333,49.1667 36.5,48.5 Z"/></g>
<g><path style="opacity:1" fill="#3c1560" d="M 55.5,57.5 C 54.1667,56.5 52.8333,55.5 51.5,54.5C 52.1834,52.8235 53.5168,52.1568 55.5,52.5C 55.5,54.1667 55.5,55.8333 55.5,57.5 Z"/></g>
<g><path style="opacity:1" fill="#e51123" d="M 16.5,57.5 C 16.5,57.8333 16.5,58.1667 16.5,58.5C 16.1583,59.3382 15.4916,59.6716 14.5,59.5C 13.8333,59.5 13.1667,59.5 12.5,59.5C 7.63014,56.1028 7.29681,52.2695 11.5,48C 13.1667,47.3333 14.8333,47.3333 16.5,48C 11.7276,48.4287 9.56094,50.9287 10,55.5C 11.7889,57.229 13.9556,57.8957 16.5,57.5 Z"/></g>
<g><path style="opacity:1" fill="#d60e26" d="M 45.5,50.5 C 46.8333,51.1667 47.8333,52.1667 48.5,53.5C 48.2586,59.5006 45.7586,60.8339 41,57.5C 39.5243,53.1556 41.0243,50.8222 45.5,50.5 Z"/></g>
<g><path style="opacity:1" fill="#421e68" d="M 43.5,51.5 C 44.4959,51.4142 45.3292,51.7476 46,52.5C 46.4935,54.1341 46.6602,55.8008 46.5,57.5C 41.2938,57.5405 40.2938,55.5405 43.5,51.5 Z"/></g>
<g><path style="opacity:1" fill="#e3d3de" d="M 18.5,55.5 C 18.5,56.1667 18.5,56.8333 18.5,57.5C 17.8333,57.8333 17.1667,58.1667 16.5,58.5C 16.5,58.1667 16.5,57.8333 16.5,57.5C 16.8333,56.5 17.5,55.8333 18.5,55.5 Z"/></g>
<g><path style="opacity:1" fill="#dbd3df" d="M 51.5,54.5 C 52.8333,55.5 54.1667,56.5 55.5,57.5C 55.5,57.8333 55.5,58.1667 55.5,58.5C 53.9382,58.2671 52.6049,57.6005 51.5,56.5C 51.5,55.8333 51.5,55.1667 51.5,54.5 Z"/></g>
<g><path style="opacity:1" fill="#de1425" d="M 20.5,52.5 C 20.5,53.1667 20.5,53.8333 20.5,54.5C 20.5,55.5 20.5,56.5 20.5,57.5C 24.0681,57.2407 25.4015,55.2407 24.5,51.5C 24.5,50.8333 24.8333,50.5 25.5,50.5C 25.8134,53.2469 25.48,55.9135 24.5,58.5C 22.2174,59.85 20.2174,59.5167 18.5,57.5C 18.5,56.8333 18.5,56.1667 18.5,55.5C 18.2148,53.712 18.5481,52.0453 19.5,50.5C 20.2975,50.9569 20.6309,51.6236 20.5,52.5 Z"/></g>
<g><path style="opacity:1" fill="#3f1862" d="M 24.5,51.5 C 25.4015,55.2407 24.0681,57.2407 20.5,57.5C 20.5,56.5 20.5,55.5 20.5,54.5C 21.8333,53.5 23.1667,52.5 24.5,51.5 Z"/></g>
<g><path style="opacity:1" fill="#cbc4d9" d="M 12.5,59.5 C 13.1667,59.5 13.8333,59.5 14.5,59.5C 13.8333,62.1667 13.1667,62.1667 12.5,59.5 Z"/></g>
<g><path style="opacity:1" fill="#e1dae5" d="M 34.5,52.5 C 35.2679,54.7146 35.9346,57.0479 36.5,59.5C 36.8076,61.924 36.4742,64.2573 35.5,66.5C 34.5067,61.8804 34.1734,57.2137 34.5,52.5 Z"/></g>
</svg>
