<?xml version="1.0" encoding="UTF-8"?>
<!DOCTYPE svg PUBLIC "-//W3C//DTD SVG 1.1//EN" "http://www.w3.org/Graphics/SVG/1.1/DTD/svg11.dtd">
<svg xmlns="http://www.w3.org/2000/svg" version="1.1" width="72px" height="72px" style="shape-rendering:geometricPrecision; text-rendering:geometricPrecision; image-rendering:optimizeQuality; fill-rule:evenodd; clip-rule:evenodd" xmlns:xlink="http://www.w3.org/1999/xlink">
<g><path style="opacity:0.998" fill="#431e65" d="M 14.5,-0.5 C 28.5,-0.5 42.5,-0.5 56.5,-0.5C 63.1667,2.83333 68.1667,7.83333 71.5,14.5C 71.5,28.8333 71.5,43.1667 71.5,57.5C 68.594,63.075 64.594,67.7417 59.5,71.5C 43.5,71.5 27.5,71.5 11.5,71.5C 6.40597,67.7417 2.40597,63.075 -0.5,57.5C -0.5,43.1667 -0.5,28.8333 -0.5,14.5C 2.83333,7.83333 7.83333,2.83333 14.5,-0.5 Z"/></g>
<g><path style="opacity:1" fill="#e3dde9" d="M 34.5,5.5 C 36.337,5.63945 36.6704,6.30612 35.5,7.5C 34.7025,7.04311 34.3691,6.37644 34.5,5.5 Z"/></g>
<g><path style="opacity:1" fill="#c7bdd5" d="M 34.5,10.5 C 35.8232,13.9377 36.4898,17.771 36.5,22C 36.1667,25.8333 35.8333,29.6667 35.5,33.5C 34.5025,25.8622 34.1692,18.1955 34.5,10.5 Z"/></g>
<g><path style="opacity:1" fill="#bfb2cd" d="M 15.5,18.5 C 21.3669,23.6038 27.0336,28.9371 32.5,34.5C 31.9984,35.521 31.3317,35.6877 30.5,35C 24.9018,29.9086 19.9018,24.4086 15.5,18.5 Z"/></g>
<g><path style="opacity:1" fill="#c2b6cf" d="M 54.5,18.5 C 55.525,18.8966 55.6917,19.5632 55,20.5C 49.9853,25.6818 44.8186,30.6818 39.5,35.5C 38.479,34.9984 38.3123,34.3317 39,33.5C 44.6699,28.9964 49.8365,23.9964 54.5,18.5 Z"/></g>
<g><path style="opacity:1" fill="#d6cfe1" d="M 30.5,37.5 C 26.1667,38.1667 21.8333,38.8333 17.5,39.5C 14.1016,39.8204 10.7683,39.487 7.5,38.5C 15.1378,37.5025 22.8045,37.1692 30.5,37.5 Z"/></g>
<g><path style="opacity:1" fill="#f2f0f6" d="M 40.5,37.5 C 48.1955,37.1692 55.8622,37.5025 63.5,38.5C 63.0431,39.2975 62.3764,39.6309 61.5,39.5C 54.5,38.8333 47.5,38.1667 40.5,37.5 Z"/></g>
<g><path style="opacity:1" fill="#937ea9" d="M 30.5,37.5 C 31.0431,37.56 31.3764,37.8933 31.5,38.5C 26.8804,39.4933 22.2137,39.8266 17.5,39.5C 21.8333,38.8333 26.1667,38.1667 30.5,37.5 Z"/></g>
<g><path style="opacity:1" fill="#d1c8dc" d="M 34.5,37.5 C 36.337,37.6395 36.6704,38.3061 35.5,39.5C 34.7025,39.0431 34.3691,38.3764 34.5,37.5 Z"/></g>
<g><path style="opacity:1" fill="#9681ac" d="M 40.5,37.5 C 47.5,38.1667 54.5,38.8333 61.5,39.5C 54.1365,39.8306 46.8032,39.4973 39.5,38.5C 39.6236,37.8933 39.9569,37.56 40.5,37.5 Z"/></g>
<g><path style="opacity:1" fill="#cfc5da" d="M 38.5,40.5 C 43.3873,45.8908 48.5539,51.2241 54,56.5C 54.6667,57.1667 54.6667,57.8333 54,58.5C 48.652,52.985 43.152,47.6517 37.5,42.5C 37.8627,41.8165 38.1961,41.1499 38.5,40.5 Z"/></g>
<g><path style="opacity:1" fill="#c5bbd4" d="M 34.5,42.5 C 35.824,46.107 36.4907,50.107 36.5,54.5C 36.1667,58.5 35.8333,62.5 35.5,66.5C 34.5023,58.5277 34.169,50.5277 34.5,42.5 Z"/></g>
<g><path style="opacity:1" fill="#d7cee0" d="M 30.5,40.5 C 31.7562,40.4614 32.7562,40.9614 33.5,42C 28.1667,47.3333 22.8333,52.6667 17.5,58C 16.8333,58.6667 16.1667,58.6667 15.5,58C 21.4819,52.8634 26.4819,47.03 30.5,40.5 Z"/></g>
<g><path style="opacity:1" fill="#aa97bb" d="M 12.5,59.5 C 14.337,59.6395 14.6704,60.3061 13.5,61.5C 12.7025,61.0431 12.3691,60.3764 12.5,59.5 Z"/></g>
</svg>
